<svg width="18" height="22" viewBox="0 0 18 22" fill="none" xmlns="http://www.w3.org/2000/svg">
<path d="M8.99961 0C4.03717 0 0 3.42523 0 7.63498C0 11.6872 8.1655 21.1547 8.51318 21.5556L8.83766 21.9302C8.87561 21.9743 8.93603 22 8.99961 22C9.06416 22 9.1242 21.9743 9.16254 21.9302L9.48682 21.5556C9.8347 21.1547 18 11.6872 18 7.63498C18 3.42523 13.9622 0 8.99961 0ZM8.99961 4.90014C10.7777 4.90014 12.2235 6.12671 12.2235 7.63498C12.2235 9.14247 10.7776 10.3698 8.99961 10.3698C7.2226 10.3698 5.77571 9.14247 5.77571 7.63498C5.77571 6.12671 7.22253 4.90014 8.99961 4.90014Z" fill="white"/>
</svg>
