<svg width="35" height="34" viewBox="0 0 35 34" fill="none" xmlns="http://www.w3.org/2000/svg">
<g clip-path="url(#clip0_426_2281)">
<path d="M20.0908 4.25V9.91667C20.0908 10.2924 20.2401 10.6527 20.5058 10.9184C20.7714 11.1841 21.1318 11.3333 21.5075 11.3333H27.1742" stroke="#33AB4F" stroke-width="2" stroke-linecap="round" stroke-linejoin="round"/>
<path d="M24.3408 29.75H10.1742C9.42271 29.75 8.70204 29.4515 8.17068 28.9201C7.63933 28.3888 7.34082 27.6681 7.34082 26.9167V7.08333C7.34082 6.33189 7.63933 5.61122 8.17068 5.07986C8.70204 4.54851 9.42271 4.25 10.1742 4.25H20.0908L27.1742 11.3333V26.9167C27.1742 27.6681 26.8756 28.3888 26.3443 28.9201C25.8129 29.4515 25.0923 29.75 24.3408 29.75Z" stroke="#33AB4F" stroke-width="2" stroke-linecap="round" stroke-linejoin="round"/>
<path d="M13.0073 9.9165H14.424" stroke="#33AB4F" stroke-width="2" stroke-linecap="round" stroke-linejoin="round"/>
<path d="M13.0073 18.4165H21.5073" stroke="#33AB4F" stroke-width="2" stroke-linecap="round" stroke-linejoin="round"/>
<path d="M18.6738 24.0835H21.5072" stroke="#33AB4F" stroke-width="2" stroke-linecap="round" stroke-linejoin="round"/>
</g>
<defs>
<clipPath id="clip0_426_2281">
<rect width="34" height="34" fill="white" transform="translate(0.257324)"/>
</clipPath>
</defs>
</svg>
