<svg width="35" height="34" viewBox="0 0 35 34" fill="none" xmlns="http://www.w3.org/2000/svg">
<g clip-path="url(#clip0_426_2271)">
<path d="M8.75732 5.66675H7.34066C6.58921 5.66675 5.86854 5.96526 5.33719 6.49661C4.80584 7.02797 4.50732 7.74863 4.50732 8.50008V13.4584C4.50732 15.5249 5.32823 17.5067 6.78945 18.968C8.25067 20.4292 10.2325 21.2501 12.299 21.2501C14.3655 21.2501 16.3473 20.4292 17.8085 18.968C19.2698 17.5067 20.0907 15.5249 20.0907 13.4584V8.50008C20.0907 7.74863 19.7921 7.02797 19.2608 6.49661C18.7294 5.96526 18.0088 5.66675 17.2573 5.66675H15.8407" stroke="#33AB4F" stroke-width="2" stroke-linecap="round" stroke-linejoin="round"/>
<path d="M11.5908 21.25C11.5908 22.3662 11.8107 23.4715 12.2378 24.5028C12.665 25.5341 13.2911 26.4711 14.0804 27.2604C14.8697 28.0497 15.8067 28.6758 16.838 29.103C17.8693 29.5301 18.9746 29.75 20.0908 29.75C21.2071 29.75 22.3124 29.5301 23.3436 29.103C24.3749 28.6758 25.3119 28.0497 26.1012 27.2604C26.8905 26.4711 27.5166 25.5341 27.9438 24.5028C28.371 23.4715 28.5908 22.3662 28.5908 21.25V17" stroke="#33AB4F" stroke-width="2" stroke-linecap="round" stroke-linejoin="round"/>
<path d="M15.8408 4.25V7.08333" stroke="#33AB4F" stroke-width="2" stroke-linecap="round" stroke-linejoin="round"/>
<path d="M8.75732 4.25V7.08333" stroke="#33AB4F" stroke-width="2" stroke-linecap="round" stroke-linejoin="round"/>
<path d="M28.5907 16.9999C30.1555 16.9999 31.424 15.7314 31.424 14.1666C31.424 12.6018 30.1555 11.3333 28.5907 11.3333C27.0259 11.3333 25.7573 12.6018 25.7573 14.1666C25.7573 15.7314 27.0259 16.9999 28.5907 16.9999Z" stroke="#33AB4F" stroke-width="2" stroke-linecap="round" stroke-linejoin="round"/>
</g>
<defs>
<clipPath id="clip0_426_2271">
<rect width="34" height="34" fill="white" transform="translate(0.257324)"/>
</clipPath>
</defs>
</svg>
