<svg width="27" height="23" viewBox="0 0 27 23" fill="none" xmlns="http://www.w3.org/2000/svg">
<path d="M16.3916 5C17.5536 5.19056 18.6215 5.66826 19.4586 6.37193C20.2957 7.07561 20.864 7.97326 21.0907 8.95M16.3916 1C18.8057 1.22544 21.0569 2.13417 22.7755 3.57701C24.4941 5.01984 25.578 6.91101 25.8492 8.94M24.6596 16.92V19.92C24.6609 20.1985 24.5931 20.4742 24.4603 20.7293C24.3276 20.9845 24.1329 21.2136 23.8888 21.4019C23.6446 21.5901 23.3564 21.7335 23.0426 21.8227C22.7287 21.9119 22.3961 21.9451 22.0662 21.92C18.4055 21.5856 14.8891 20.5341 11.7996 18.85C8.92528 17.3147 6.48832 15.2662 4.66183 12.85C2.65132 10.2412 1.40014 7.27099 1.00966 4.18C0.979928 3.90347 1.01902 3.62476 1.12446 3.36162C1.22989 3.09849 1.39935 2.85669 1.62204 2.65162C1.84473 2.44655 2.11578 2.28271 2.41793 2.17052C2.72008 2.05833 3.04671 2.00026 3.37703 2H6.94593C7.52327 1.99522 8.08297 2.16708 8.52072 2.48353C8.95847 2.79999 9.24439 3.23945 9.3252 3.72C9.47583 4.68007 9.75519 5.62273 10.1579 6.53C10.318 6.88792 10.3526 7.27691 10.2578 7.65088C10.1629 8.02485 9.94245 8.36811 9.62261 8.64L8.11177 9.91C9.80528 12.4135 12.2713 14.4864 15.2496 15.91L16.7604 14.64C17.0839 14.3711 17.4922 14.1858 17.9371 14.1061C18.382 14.0263 18.8447 14.0555 19.2705 14.19C20.3499 14.5285 21.4713 14.7634 22.6134 14.89C23.1913 14.9585 23.7191 15.2032 24.0963 15.5775C24.4736 15.9518 24.6741 16.4296 24.6596 16.92Z" stroke="#5C5C5C" stroke-width="2" stroke-linecap="round" stroke-linejoin="round"/>
</svg>
