<svg width="48" height="48" viewBox="0 0 48 48" fill="none" xmlns="http://www.w3.org/2000/svg">
<circle cx="24" cy="24" r="24" fill="#F0F0F0"/>
<path d="M24 12C17.3988 12 12 16.937 12 23.0596C12 26.4072 13.6345 29.3791 16.1739 31.4025V36L16.9402 35.5981L20.7065 33.6691C21.7582 33.9464 22.8526 34.1192 24 34.1192C30.6012 34.1192 36 29.1822 36 23.0596C36 16.937 30.6012 12 24 12ZM24 13.0288C30.0754 13.0288 34.9565 17.5338 34.9565 23.0596C34.9565 28.5854 30.0754 33.0904 24 33.0904C22.8709 33.0904 21.7785 32.9297 20.7554 32.6403L20.5598 32.5921L20.3804 32.6885L17.2174 34.3121V30.9364L17.0217 30.7917C14.5883 28.9451 13.0435 26.1661 13.0435 23.0596C13.0435 17.5338 17.9246 13.0288 24 13.0288ZM22.8098 20.0857L16.5326 26.6443L22.1739 23.5258L25.1902 26.7086L31.3859 20.0857L25.8913 23.1239L22.8098 20.0857Z" fill="black"/>
</svg>
