<svg width="24" height="24" viewBox="0 0 24 24" fill="none" xmlns="http://www.w3.org/2000/svg">
<path d="M12 0C5.39878 0 0 4.93704 0 11.0596C0 14.4072 1.63451 17.3791 4.17391 19.4025V24L4.94022 23.5981L8.70652 21.6691C9.75815 21.9464 10.8526 22.1192 12 22.1192C18.6012 22.1192 24 17.1822 24 11.0596C24 4.93704 18.6012 0 12 0ZM12 1.0288C18.0754 1.0288 22.9565 5.53383 22.9565 11.0596C22.9565 16.5854 18.0754 21.0904 12 21.0904C10.8709 21.0904 9.77853 20.9297 8.75543 20.6403L8.55978 20.5921L8.38043 20.6885L5.21739 22.3121V18.9364L5.02174 18.7917C2.58832 16.9451 1.04348 14.1661 1.04348 11.0596C1.04348 5.53383 5.92459 1.0288 12 1.0288ZM10.8098 8.08573L4.53261 14.6443L10.1739 11.5258L13.1902 14.7086L19.3859 8.08573L13.8913 11.1239L10.8098 8.08573Z" fill="black"/>
</svg>
