<svg width="64" height="55" viewBox="0 0 64 55" fill="none" xmlns="http://www.w3.org/2000/svg">
<g clip-path="url(#clip0_426_2372)">
<path d="M60.1632 4.43755C60.1886 4.39784 60.2046 4.35415 60.2104 4.30902C60.2162 4.2639 60.2117 4.21822 60.197 4.17464C60.1823 4.13105 60.1579 4.09041 60.125 4.05508C60.0922 4.01974 60.0516 3.9904 60.0056 3.96876L57.1147 2.60207C57.0689 2.58015 57.0185 2.56634 56.9665 2.56145C56.9145 2.55655 56.8619 2.56067 56.8117 2.57355C56.7615 2.58644 56.7148 2.60784 56.6743 2.63652C56.6337 2.66519 56.6001 2.70057 56.5754 2.7406L55.4162 4.57608C51.0331 3.43577 46.177 5.05755 43.8964 8.68206L49.4981 11.336C49.0532 12.0441 48.9506 12.8765 49.2129 13.6501C49.4752 14.4238 50.081 15.0753 50.8968 15.4614C51.7127 15.8476 52.672 15.9366 53.5635 15.7089C54.455 15.4813 55.2058 14.9557 55.6507 14.2476L61.2544 16.8982C63.5369 13.2754 62.4886 8.85438 59.0059 6.27388L60.1632 4.43671V4.43755Z" fill="#33AB4F"/>
<path d="M20.6963 37.4999H1.84327V54.412H20.6963V37.4999Z" fill="#33AB4F"/>
<path d="M22.8574 45.9527H38.0837C39.3598 45.9525 40.5836 45.5127 41.4862 44.73C42.3889 43.9473 42.8967 42.8857 42.8979 41.7783C42.8972 40.6709 42.3896 39.6091 41.4867 38.8264C40.5839 38.0437 39.3598 37.6043 38.0837 37.6047H22.8574V45.9527Z" fill="#33AB4F"/>
<path d="M55.6855 49.339C55.6855 48.4056 54.8144 47.6479 53.7379 47.6479H22.858V54.4104H55.6855V49.3382V49.339Z" fill="#33AB4F"/>
<path d="M43.9763 40.9133C43.9778 42.2508 44.5913 43.5329 45.6819 44.4779C46.7725 45.4229 48.2509 45.9534 49.7921 45.9527C50.5553 45.9532 51.3112 45.8233 52.0166 45.5704C52.722 45.3174 53.363 44.9464 53.9032 44.4785C54.4433 44.0105 54.8719 43.4548 55.1646 42.8431C55.4573 42.2314 55.6082 41.5757 55.6089 40.9133C55.6089 38.1318 53.0051 35.8765 49.7921 35.8765C46.581 35.8765 43.9763 38.1318 43.9763 40.9133Z" fill="#33AB4F"/>
<path d="M12.1865 26.8013L15.458 18.7186C16.0926 17.1948 17.3113 16.0055 20.7511 16.0055H35.8538C39.2927 16.0055 40.5133 17.1948 41.145 18.7186L44.4155 26.8013C44.6598 27.3233 44.7863 28.4966 43.4557 29.2821L35.7652 33.6795C35.2259 33.9881 34.5676 34.0985 33.9347 33.9866C33.3017 33.8746 32.7457 33.5495 32.3886 33.0823C32.2125 32.8505 32.0907 32.5908 32.0302 32.318C31.9698 32.0453 31.9718 31.7649 32.0363 31.4929C32.1007 31.2209 32.2263 30.9625 32.4059 30.7326C32.5854 30.5027 32.8154 30.3058 33.0826 30.153L39.1866 26.662L37.4686 22.5492H35.0907L36.4835 25.8857L31.8494 28.5363C31.3364 28.8278 30.8953 29.2048 30.5516 29.6455C30.2078 30.0862 29.9684 30.5817 29.8472 31.1033C29.7213 31.6247 29.716 32.1625 29.8317 32.6857C29.9473 33.2089 30.1815 33.7069 30.5207 34.1509C30.7927 34.5028 31.1264 34.8158 31.5097 35.0783H25.0933C25.4759 34.8149 25.8098 34.5021 26.0832 34.1509C26.4223 33.7068 26.6565 33.2088 26.7725 32.6857C26.8884 32.1626 26.8837 31.6248 26.7587 31.1033C26.6367 30.5818 26.3968 30.0865 26.053 29.6459C25.7092 29.2053 25.2682 28.8282 24.7555 28.5363L20.1184 25.8857L21.5172 22.5492H19.1373L17.4154 26.662L23.5223 30.153C24.6446 30.795 24.958 32.1101 24.2153 33.0823C23.4726 34.0546 21.96 34.3232 20.8378 33.6795L13.1482 29.2821C11.8166 28.4957 11.9422 27.3233 12.1855 26.8013H12.1865Z" fill="#33AB4F"/>
<path d="M26.7994 8.09491C26.9832 8.44106 27.2775 8.73426 27.6473 8.9398C28.0172 9.14533 28.4471 9.2546 28.8863 9.25465C29.3262 9.25479 29.7569 9.14565 30.1276 8.94014C30.4982 8.73463 30.7934 8.44133 30.9781 8.09491H35.1908C35.2589 8.41589 35.2988 8.74447 35.2988 9.08318C35.2975 10.5632 34.6189 11.9822 33.4122 13.0282C32.2055 14.0741 30.5695 14.6613 28.8639 14.6606C28.0193 14.6611 27.1829 14.5173 26.4023 14.2373C25.6218 13.9573 24.9124 13.5466 24.3148 13.0287C23.7171 12.5108 23.2429 11.8958 22.9192 11.2188C22.5955 10.5418 22.4286 9.81613 22.4281 9.08318C22.4281 8.74362 22.4699 8.41589 22.5351 8.09491H26.7985H26.7994Z" fill="#33AB4F"/>
<path d="M31.1202 6.77825C30.9946 6.3467 30.7067 5.96385 30.3021 5.6903C29.8975 5.41675 29.3993 5.26812 28.8864 5.26796C27.8098 5.26796 26.9017 5.91329 26.6564 6.77825H23.0063C23.5173 5.80218 24.3413 4.97441 25.3798 4.39384C26.4184 3.81327 27.6276 3.50445 28.863 3.50427C30.0984 3.50466 31.3075 3.81356 32.346 4.39411C33.3845 4.97465 34.2086 5.80231 34.7197 6.77825H31.1193H31.1202Z" fill="#33AB4F"/>
</g>
<defs>
<clipPath id="clip0_426_2372">
<rect width="62.2951" height="54.0594" fill="white" transform="translate(0.967285 0.802002)"/>
</clipPath>
</defs>
</svg>
