<svg width="64" height="64" viewBox="0 0 64 64" fill="none" xmlns="http://www.w3.org/2000/svg">
<g clip-path="url(#clip0_426_2409)">
<path d="M0.663086 40.71H52.2021V44.767H0.663086V40.71Z" fill="#33AB4F"/>
<path d="M38.9618 51.665C38.9618 48.961 27.0568 49.232 27.0568 51.701V60.852C26.9378 62.112 27.8528 63.348 29.1178 63.348L61.0058 63.35C61.307 63.3504 61.6052 63.2914 61.8835 63.1764C62.1619 63.0614 62.4148 62.8926 62.6277 62.6797C62.8407 62.4668 63.0096 62.214 63.1248 61.9357C63.2399 61.6574 63.2991 61.3592 63.2988 61.058L63.3018 32.084C63.3018 13.878 47.6748 -0.754957 29.1248 0.932043C28.519 0.987364 27.9598 1.28087 27.5702 1.74811C27.1806 2.21535 26.9924 2.81812 27.0468 3.42404V13.284H38.9618V6.30004C50.3508 9.35404 58.7118 19.752 58.7158 32.075C58.6748 44.39 50.3558 54.836 38.9618 57.874V51.663V51.665Z" fill="#33AB4F"/>
<path d="M42.9771 32.154C42.9768 31.4798 43.1094 30.8122 43.3672 30.1892C43.6251 29.5663 44.0031 29.0003 44.4798 28.5235C44.9565 28.0467 45.5225 27.6685 46.1453 27.4106C46.7682 27.1526 47.4359 27.0199 48.1101 27.02C49.4719 27.0205 50.7778 27.5615 51.7412 28.5241C52.7045 29.4867 53.2465 30.7922 53.2481 32.154C53.2451 33.5156 52.7028 34.8206 51.7398 35.7832C50.7768 36.7458 49.4717 37.2876 48.1101 37.29C46.7487 37.2882 45.4438 36.7464 44.4815 35.7835C43.5191 34.8206 42.9781 33.5153 42.9771 32.154Z" fill="#33AB4F"/>
<path d="M36.4121 26.84H19.2111L0.62207 29.685V37.283L14.1431 37.285C13.716 36.605 13.4881 35.8189 13.4851 35.016C13.4869 33.8645 13.9452 32.7608 14.7595 31.9467C15.5738 31.1326 16.6776 30.6746 17.8291 30.673H27.2501L34.8851 29.078L35.3101 31.105L27.4641 32.743H17.8291C17.5308 32.741 17.2351 32.7978 16.9589 32.9101C16.6826 33.0224 16.4311 33.188 16.2188 33.3975C15.7901 33.8206 15.547 34.3967 15.5431 34.999C15.5391 35.6013 15.7745 36.1805 16.1976 36.6092C16.6207 37.0379 17.1968 37.281 17.7991 37.285L36.4491 37.288C39.3351 37.265 41.6491 34.942 41.6491 32.071C41.6492 31.3834 41.5138 30.7026 41.2505 30.0674C40.9872 29.4322 40.6013 28.8552 40.1148 28.3693C39.6283 27.8835 39.0507 27.4983 38.4152 27.2359C37.7797 26.9735 37.0986 26.8389 36.4111 26.84H36.4121Z" fill="#33AB4F"/>
</g>
<defs>
<clipPath id="clip0_426_2409">
<rect width="64" height="64" fill="white"/>
</clipPath>
</defs>
</svg>
