<svg width="60" height="60" viewBox="0 0 60 60" fill="none" xmlns="http://www.w3.org/2000/svg">
<g clip-path="url(#clip0_426_2405)">
<path d="M13.125 30L36.75 6.375C38.25 4.875 40.5 3.75 43.125 3.75C45.75 3.75 48 4.875 49.875 6.375C53.625 10.125 53.625 16.125 49.875 19.5L39.375 30H44.625L52.125 22.5C57.375 17.25 57.375 9 52.125 4.125C49.5 1.5 46.125 0.375 42.75 0.375C39.375 0.375 36.375 1.125 33.75 3.75L10.125 27.75C9 28.5 8.25 29.625 7.5 31.125C9.375 30.375 11.25 30 13.125 30Z" fill="#33AB4F"/>
<path d="M27.375 21L18.375 30H36L27.375 21Z" fill="#33AB4F"/>
<path d="M46.875 33.75H13.125C6 33.75 0 39.75 0 46.875C0 54 6 60 13.125 60H46.875C54 60 60 54 60 46.875C60 39.75 54 33.75 46.875 33.75ZM46.875 56.25H30V41.25H13.125C9 41.25 5.625 43.5 3.75 45.75C4.5 41.25 8.25 37.5 13.125 37.5H46.875C52.125 37.5 56.25 41.625 56.25 46.875C56.25 52.125 52.125 56.25 46.875 56.25Z" fill="#33AB4F"/>
</g>
<defs>
<clipPath id="clip0_426_2405">
<rect width="60" height="60" fill="white"/>
</clipPath>
</defs>
</svg>
