<svg width="56" height="64" viewBox="0 0 56 64" fill="none" xmlns="http://www.w3.org/2000/svg">
<path d="M24.9643 17.5904V14.9948H27.2602V12.3992H29.5561V14.9948H31.8521V17.5904H29.5561V20.1861H27.2602V17.5904H24.9643Z" fill="#55B76F"/>
<path fill-rule="evenodd" clip-rule="evenodd" d="M20.0048 22.4793L17.7341 15.2038C17.1188 13.2311 17.9959 10.9988 19.8338 10.3408C21.9678 9.57514 25.4576 8.50574 28.4079 8.50574C31.3581 8.50574 34.848 9.57514 36.9832 10.3408C38.8199 11.0001 39.6969 13.2324 39.0816 15.2038L36.8098 22.4793C37.4265 24.0598 37.6846 25.7892 37.5608 27.5109C37.437 29.2326 36.9352 30.8922 36.1008 32.3393C35.2664 33.7864 34.1259 34.9753 32.7825 35.7982C31.4391 36.6212 29.9353 37.0522 28.4073 37.0522C26.8794 37.0522 25.3756 36.6212 24.0322 35.7982C22.6888 34.9753 21.5482 33.7864 20.7138 32.3393C19.8794 30.8922 19.3776 29.2326 19.2538 27.5109C19.13 25.7892 19.3881 24.0598 20.0048 22.4793V22.4793ZM28.4079 11.1014C30.9793 11.1014 34.181 12.0592 36.2886 12.8145C36.8167 13.004 37.1267 13.6684 36.9166 14.3407L34.5931 21.7824C30.4754 20.3029 26.3404 20.3029 22.2227 21.7824L19.8992 14.3407C19.6891 13.6684 19.9991 13.004 20.5271 12.8158C22.6348 12.0592 25.8376 11.1014 28.4079 11.1014ZM21.7428 24.7038H21.744C21.805 24.6898 21.8649 24.6703 21.923 24.6454C26.2555 22.8089 30.5603 22.8089 34.8927 24.6454C34.9513 24.6704 35.0116 24.6899 35.073 24.7038C35.3381 25.8551 35.3663 27.0598 35.1554 28.2254C34.9446 29.391 34.5003 30.4865 33.8567 31.4278C33.2131 32.369 32.3873 33.1311 31.4427 33.6554C30.498 34.1796 29.4597 34.4523 28.4073 34.4523C27.355 34.4523 26.3166 34.1796 25.372 33.6554C24.4273 33.1311 23.6015 32.369 22.9579 31.4278C22.3143 30.4865 21.87 29.391 21.6592 28.2254C21.4484 27.0598 21.4766 25.8551 21.7417 24.7038H21.7428Z" fill="#55B76F"/>
<path d="M16.9282 44.8447H14.6322V47.4403H16.9282V50.0359H19.2241V47.4403H21.52V44.8447H19.2241V42.249H16.9282V44.8447Z" fill="#55B76F"/>
<path fill-rule="evenodd" clip-rule="evenodd" d="M36.5826 37.0576C36.5826 37.0576 49.0713 41.461 49.0713 46.7483V55.2269H7.74465V46.7483C7.74465 41.461 20.2333 37.0576 20.2333 37.0576L27.089 42.4993C27.4753 42.8059 27.9359 42.9704 28.408 42.9704C28.88 42.9704 29.3406 42.8059 29.727 42.4993L36.5826 37.0576ZM19.866 39.9387L25.7688 44.6238C26.5418 45.2376 27.4634 45.5669 28.408 45.5669C29.3526 45.5669 30.2742 45.2376 31.0471 44.6238L36.95 39.9387C38.6072 40.5953 40.2277 41.365 41.8024 42.2436C43.2902 43.082 44.6516 44.0125 45.609 44.9586C46.6433 45.98 46.7754 46.5874 46.7754 46.7483V52.6313H10.0406V46.7483C10.0406 46.5874 10.1726 45.98 11.2069 44.9574C12.1643 44.0125 13.5258 43.082 15.0147 42.2423C16.3412 41.5033 17.7002 40.8414 19.0865 40.2593C19.3735 40.1373 19.6352 40.0308 19.866 39.9374V39.9387Z" fill="#55B76F"/>
</svg>
