<svg width="65" height="65" viewBox="0 0 65 65" fill="none" xmlns="http://www.w3.org/2000/svg">
<g clip-path="url(#clip0_426_2403)">
<path d="M23.3567 7.46961L19.2969 11.5294L14.5817 6.81148L18.5033 2.88981L15.6135 -0.00268555L0 15.6109L2.88979 18.5006L6.81146 14.579L11.5294 19.2969L7.46958 23.3567L42.5696 58.4567L57.1919 58.7925L63.3912 64.9919L66.2458 64.6832L58.7762 57.2136L58.4404 42.5913L23.3567 7.46961ZM23.3567 12.0954L41.1883 29.9271L29.9542 41.1613L25.415 36.6275L31.0483 30.9942L28.665 28.6109L23.0317 34.2442L18.8337 30.0463L24.4671 24.4129L22.0837 22.0296L16.4504 27.6629L12.1333 23.3459L23.3567 12.0954Z" fill="#33AB4F"/>
</g>
<defs>
<clipPath id="clip0_426_2403">
<rect width="65" height="65" fill="white"/>
</clipPath>
</defs>
</svg>
