<svg width="64" height="55" viewBox="0 0 64 55" fill="none" xmlns="http://www.w3.org/2000/svg">
<path fill-rule="evenodd" clip-rule="evenodd" d="M41.6549 10.939L41.5835 10.6687C41.4473 10.1664 41.2241 9.42756 40.7633 8.70001C40.2935 7.95895 39.5654 7.20775 38.4234 6.71333C37.2852 6.22116 35.8589 6.03759 34.0952 6.24031C32.1484 6.46556 28.2381 7.02417 24.7833 8.5491C21.3091 10.083 18.0542 12.7218 18.0542 17.1164C18.0542 19.3869 19.0665 21.8229 20.0476 23.4109C20.5187 24.1745 21.0781 24.9043 21.6387 25.2974C21.7672 25.3875 21.9502 25.5001 22.1773 25.5789C22.8003 27.3556 24.0405 28.922 25.7282 30.0639C27.4159 31.2058 29.4689 31.8674 31.6064 31.9584C33.7439 32.0493 35.8616 31.5652 37.67 30.5721C39.4783 29.5789 40.8891 28.1254 41.7094 26.4101L41.7406 26.4146L42.2013 25.9292L41.1994 25.2129L42.2013 25.9292L42.2026 25.9269L42.2052 25.9247L42.2117 25.9168L42.2338 25.8943C42.3448 25.7743 42.4517 25.6515 42.5543 25.526C42.8346 25.1887 43.0987 24.8415 43.346 24.4854C43.956 23.6091 44.6918 22.3613 45.1629 20.905C45.6327 19.4488 45.8482 17.7414 45.355 15.98C44.8748 14.2659 43.7418 12.5788 41.69 11.0719L41.6549 10.939ZM39.4746 25.1724C38.9117 26.5771 37.8308 27.7815 36.3993 28.5991C34.9678 29.4168 33.2656 29.802 31.5563 29.6952C29.8469 29.5883 28.2259 28.9953 26.9442 28.0081C25.6625 27.0208 24.7917 25.6944 24.4667 24.2342L24.32 24.277C24.3252 24.2133 24.3278 24.1494 24.3278 24.0855C24.3278 22.2216 24.6263 20.9208 24.904 20.1099C24.9583 19.9521 25.0184 19.7958 25.0844 19.6414L25.1376 19.6437H25.1896C26.16 19.6618 27.1302 19.5977 28.0863 19.4522C30.3146 19.1256 33.332 18.3102 36.8855 16.4215C36.9633 16.5724 37.0412 16.7425 37.1191 16.9317C37.3734 17.5567 37.5824 18.2989 37.7628 19.0828C37.9224 19.7732 38.0535 20.4681 38.1781 21.119L38.2261 21.3758C38.3598 22.0741 38.4935 22.76 38.6492 23.2566C38.9217 24.1193 39.1995 24.732 39.4746 25.1712V25.1724ZM41.2915 23.0742C41.7808 22.3354 42.3155 21.3736 42.662 20.298C43.0501 19.0974 43.1928 17.7978 42.832 16.5127C42.4816 15.2626 41.6342 13.9483 39.8912 12.7027C39.5771 12.518 39.4344 12.2702 39.3954 12.2037V12.2026C39.3273 12.0808 39.2725 11.9538 39.2319 11.8231C39.1904 11.6947 39.145 11.519 39.1021 11.3613L39.0567 11.1845C38.9334 10.7306 38.7738 10.2362 38.4883 9.78458C38.2105 9.3476 37.8303 8.97369 37.2644 8.72929C36.696 8.48265 35.8161 8.31371 34.4378 8.47364C32.5521 8.691 29.0051 9.21245 25.9605 10.5572C22.9366 11.8918 20.6498 13.9122 20.6498 17.1164C20.6498 18.5918 21.2208 20.2699 21.9087 21.5932C22.0385 20.7305 22.2254 20.0255 22.4174 19.4668C22.5513 19.0676 22.7183 18.6773 22.9171 18.2989C22.992 18.1587 23.0743 18.0216 23.1637 17.8879L23.1857 17.8575L23.1935 17.8462L23.1974 17.8406L23.2 17.8372L24.2902 18.4453L23.2 17.8372L23.6802 17.1907L24.5394 17.3405L24.5575 17.3439L24.6834 17.3585C24.8766 17.3772 25.0706 17.3885 25.2648 17.3923C26.065 17.4057 26.8648 17.3514 27.6528 17.2301C29.7462 16.9238 32.822 16.0893 36.5584 13.9303L37.4669 13.4043L38.2183 14.0913C38.8374 14.6567 39.2579 15.4282 39.5654 16.1794C39.8795 16.9508 40.117 17.8124 40.3078 18.6391C40.4765 19.3711 40.6167 20.1065 40.7387 20.7564L40.788 21.0087C40.9269 21.7418 41.0398 22.3016 41.154 22.6642C41.2007 22.8129 41.2461 22.9503 41.2915 23.0742ZM23.2766 23.5495L23.2714 23.5472L23.2766 23.5495ZM23.2714 23.5472L23.2766 23.5495L23.2727 23.5472H23.2714Z" fill="#33AB4F"/>
<path fill-rule="evenodd" clip-rule="evenodd" d="M40.0134 32.9333C40.2886 32.458 40.6273 31.8712 41.1996 31.985C48.213 33.3702 55.4756 37.3695 55.4756 41.6222V47.7376H8.75427V41.6222C8.75427 38.2727 13.2603 35.0799 18.6008 33.1979L18.6073 33.1867C18.6132 33.1765 18.6193 33.1663 18.6254 33.1562L18.6683 33.1743C20.0868 32.6787 21.5637 32.2733 23.0302 31.985C23.683 31.8554 24.3579 32.6348 24.6525 33.1225H39.9018C39.9382 33.0639 39.9745 32.9986 40.0134 32.9333ZM22.5072 34.4199C21.9401 34.5562 21.3755 34.7093 20.8188 34.8783C20.8032 35.2634 20.8369 35.7184 20.9096 36.1824C20.9836 36.6629 21.1016 37.1374 21.2626 37.6015H23.0302C23.2712 37.6016 23.5073 37.6599 23.7123 37.7699C23.9172 37.8799 24.0828 38.0373 24.1905 38.2243L25.4883 40.4768C25.5785 40.6331 25.6256 40.8054 25.6259 40.9802V43.2327C25.6259 43.5314 25.4891 43.8179 25.2457 44.0291C25.0023 44.2403 24.6722 44.3589 24.328 44.3589H21.7324V42.1065H23.0302V41.246L22.2282 39.854H18.641L17.839 41.246V42.1065H19.1368V44.3589H16.5412C16.197 44.3589 15.8669 44.2403 15.6235 44.0291C15.3801 43.8179 15.2433 43.5314 15.2433 43.2327V40.9802C15.2436 40.8054 15.2907 40.6331 15.3809 40.4768L16.6787 38.2243C16.7864 38.0373 16.952 37.8799 17.1569 37.7699C17.3619 37.6599 17.598 37.6016 17.839 37.6015H18.5735C18.4132 37.0055 18.3056 36.3997 18.2517 35.7894C16.9863 36.3086 15.8105 36.9044 14.7917 37.5486C12.2973 39.1276 11.3499 40.6052 11.3499 41.6222V45.4852H52.88V41.6222C52.88 40.6052 51.9326 39.1276 49.4382 37.5486C48.1845 36.7546 46.6881 36.036 45.084 35.4414C45.0671 35.7905 45.0282 36.1442 44.975 36.4865C44.8854 37.0497 44.7517 37.6105 44.5895 38.0926L44.5791 38.1241C45.355 38.55 45.9325 39.2002 46.2095 39.9598C46.4866 40.7194 46.4454 41.5395 46.0933 42.2753C45.7411 43.0111 45.1007 43.6152 44.285 43.981C43.4694 44.3468 42.5311 44.4507 41.6357 44.2743C40.7404 44.0979 39.9457 43.6527 39.392 43.0171C38.8383 42.3816 38.5611 41.5968 38.6096 40.8011C38.658 40.0055 39.0289 39.2503 39.6567 38.669C40.2845 38.0877 41.1289 37.7175 42.0406 37.624C42.2064 37.1528 42.328 36.6707 42.404 36.1824C42.4763 35.7458 42.5062 35.3046 42.4935 34.8636C42.4897 34.769 42.4819 34.6857 42.4741 34.6113C42.3183 34.5697 42.1626 34.5291 42.0069 34.4908L41.4683 35.3761H23.086L22.5072 34.421V34.4199ZM42.4974 42.1245C41.7992 42.1245 41.1996 41.6289 41.1996 40.9813C41.1996 40.3349 41.7992 39.8382 42.4974 39.8382C43.1957 39.8382 43.7953 40.3338 43.7953 40.9813C43.7953 41.6278 43.1957 42.1245 42.4974 42.1245Z" fill="#33AB4F"/>
</svg>
