<svg width="25" height="22" viewBox="0 0 25 22" fill="none" xmlns="http://www.w3.org/2000/svg">
<path d="M23.6569 0.00152829C23.408 0.0122582 23.1601 0.0786862 22.9328 0.166977H22.932C22.7105 0.253445 21.2873 0.843086 19.2127 1.704C17.1381 2.56491 14.4416 3.68569 11.7682 4.79738C6.4214 7.02077 1.16735 9.2079 1.16735 9.2079L1.19099 9.19931C1.19099 9.19931 0.897795 9.29537 0.604399 9.49368C0.457701 9.59284 0.303684 9.71952 0.181825 9.89548C0.0599661 10.0714 -0.0258004 10.3124 0.00706605 10.5709C0.0663783 11.0373 0.384288 11.3424 0.646656 11.5256C0.909025 11.7089 1.16091 11.7956 1.16091 11.7956L1.16377 11.7971L6.3027 13.496C6.38726 13.7903 7.76085 18.5734 8.08467 19.5832C8.25405 20.1119 8.41069 20.4055 8.55738 20.5902C8.63072 20.6825 8.70315 20.7481 8.77583 20.7929C8.80707 20.8121 8.83803 20.8251 8.86822 20.8366C8.87314 20.8384 8.8784 20.8421 8.88326 20.8437C8.89362 20.8473 8.89915 20.8472 8.91191 20.8502C9.39607 21.0293 9.80505 20.717 9.80505 20.717L9.81651 20.7084L13.3396 17.6085L18.5502 21.787L18.596 21.807C19.4322 22.1672 20.1233 21.9694 20.5248 21.6523C20.9263 21.3353 21.0892 20.9204 21.0892 20.9204L21.1021 20.8881L24.8608 1.87589C24.953 1.46919 24.9622 1.12779 24.8823 0.834499C24.8024 0.541204 24.6166 0.30273 24.386 0.169125C24.1554 0.0355211 23.9057 -0.00920232 23.6569 0.00152829ZM23.6769 0.747836C23.8229 0.741556 23.9459 0.761607 24.0186 0.803702C24.0912 0.845797 24.1384 0.894058 24.1747 1.02716C24.211 1.16027 24.2197 1.38495 24.1453 1.71331L24.1439 1.71832L20.4002 20.6568C20.3947 20.6695 20.2982 20.8963 20.07 21.0765C19.8399 21.2582 19.5267 21.3924 18.914 21.1388L10.5385 14.422C10.5036 14.3854 10.4616 14.3564 10.415 14.3368C10.3684 14.3172 10.3183 14.3075 10.2677 14.3082C10.1713 14.307 10.0783 14.3439 10.0089 14.4107C9.93948 14.4776 9.89917 14.5692 9.89672 14.6656L8.94199 19.7808C8.89318 19.6684 8.84058 19.5365 8.78371 19.359C8.48815 18.4373 7.15911 13.8224 7.02823 13.3677L20.1739 4.85683C20.1928 4.93825 20.239 5.01075 20.3048 5.06233C20.3705 5.11391 20.452 5.14148 20.5356 5.14045C20.5908 5.14111 20.6455 5.12927 20.6956 5.10581C20.7457 5.08234 20.7898 5.04786 20.8246 5.00495C20.8595 4.96204 20.8842 4.9118 20.8969 4.858C20.9096 4.80419 20.9099 4.74821 20.898 4.69424C20.9077 4.58203 20.8983 4.47167 20.8493 4.36192C20.7701 4.18483 20.5828 4.07702 20.4496 4.05179C20.1833 4.00133 20.0098 4.09834 20.0098 4.09834L19.9733 4.11195L6.54836 12.8048L1.40299 11.1038L1.40156 11.103C1.4002 11.1026 1.23855 11.0442 1.06637 10.924C0.893451 10.8032 0.756116 10.6465 0.734752 10.4785C0.727281 10.4197 0.738566 10.3799 0.784888 10.313C0.83121 10.2462 0.917084 10.1671 1.0148 10.101C1.21022 9.96895 1.42591 9.89405 1.42591 9.89405L1.43737 9.88975L1.44955 9.88474C1.44955 9.88474 6.70304 7.69753 12.0497 5.47422C14.723 4.36256 17.4199 3.24233 19.4942 2.38155C21.5684 1.52077 23.0498 0.908271 23.1985 0.850257C23.3621 0.78673 23.531 0.754117 23.6769 0.747836ZM19.5085 5.39686L19.2148 5.54441L19.1568 5.86814L19.3817 6.10808L19.5085 6.13028L19.8021 5.98345L19.8602 5.65972L19.636 5.41978L19.5085 5.39686ZM18.4821 6.3874L18.1885 6.53423L18.1305 6.85797L18.3546 7.0979L18.4821 7.12082L18.7758 6.97328L18.8338 6.65026L18.6089 6.41032L18.4821 6.3874ZM17.4551 7.37723L17.1614 7.52477L17.1034 7.84779L17.3276 8.08773L17.4551 8.11065L17.7487 7.96382L17.8067 7.64008L17.5825 7.40015L17.4551 7.37723ZM16.4287 8.36777L16.1343 8.5146L16.077 8.83833L16.3012 9.07827L16.4287 9.10119L16.7224 8.95364L16.7804 8.63063L16.5555 8.38997L16.4287 8.36777ZM15.4016 9.3576L15.108 9.50514L15.05 9.82816L15.2742 10.0681L15.4016 10.091L15.6953 9.94419L15.7533 9.62045L15.5291 9.38052L15.4016 9.3576ZM14.3746 10.3474L14.0809 10.495L14.0229 10.8187L14.2478 11.0586L14.3746 11.0808L14.6689 10.934L14.7262 10.6103L14.5021 10.3703L14.3746 10.3474ZM13.3482 11.338L13.0546 11.4848L12.9966 11.8085L13.2207 12.0485L13.3482 12.0714L13.6419 11.9238L13.6999 11.6008L13.475 11.3609L13.3482 11.338ZM12.3211 12.3278L12.0275 12.4753L11.9695 12.7983L12.1944 13.0383L12.3211 13.0612L12.6148 12.9144L12.6728 12.5906L12.4486 12.3507L12.3211 12.3278ZM11.2948 13.3183L11.0004 13.4652L10.9431 13.7889L11.1673 14.0288L11.2948 14.0517L11.5884 13.9042L11.6465 13.5805L11.4216 13.3405L11.2948 13.3183ZM10.5155 15.3438L12.7595 17.143L9.67326 19.8575L10.5155 15.3438Z" fill="black"/>
</svg>
