<svg width="48" height="48" viewBox="0 0 48 48" fill="none" xmlns="http://www.w3.org/2000/svg">
<circle cx="24" cy="24" r="24" fill="#F0F0F0"/>
<path d="M33.6569 13.0015C33.408 13.0123 33.1601 13.0787 32.9328 13.167H32.932C32.7105 13.2534 31.2873 13.8431 29.2127 14.704C27.1381 15.5649 24.4416 16.6857 21.7682 17.7974C16.4214 20.0208 11.1674 22.2079 11.1674 22.2079L11.191 22.1993C11.191 22.1993 10.8978 22.2954 10.6044 22.4937C10.4577 22.5928 10.3037 22.7195 10.1818 22.8955C10.06 23.0714 9.9742 23.3124 10.0071 23.5709C10.0664 24.0373 10.3843 24.3424 10.6467 24.5256C10.909 24.7089 11.1609 24.7956 11.1609 24.7956L11.1638 24.7971L16.3027 26.496C16.3873 26.7903 17.7609 31.5734 18.0847 32.5832C18.254 33.1119 18.4107 33.4055 18.5574 33.5902C18.6307 33.6825 18.7032 33.7481 18.7758 33.7929C18.8071 33.8121 18.838 33.8251 18.8682 33.8366C18.8731 33.8384 18.8784 33.8421 18.8833 33.8437C18.8936 33.8473 18.8992 33.8472 18.9119 33.8502C19.3961 34.0293 19.805 33.717 19.805 33.717L19.8165 33.7084L23.3396 30.6085L28.5502 34.787L28.596 34.807C29.4322 35.1672 30.1233 34.9694 30.5248 34.6523C30.9263 34.3353 31.0892 33.9204 31.0892 33.9204L31.1021 33.8881L34.8608 14.8759C34.953 14.4692 34.9622 14.1278 34.8823 13.8345C34.8024 13.5412 34.6166 13.3027 34.386 13.1691C34.1554 13.0355 33.9057 12.9908 33.6569 13.0015ZM33.6769 13.7478C33.8229 13.7416 33.9459 13.7616 34.0186 13.8037C34.0912 13.8458 34.1384 13.8941 34.1747 14.0272C34.211 14.1603 34.2197 14.385 34.1453 14.7133L34.1439 14.7183L30.4002 33.6568C30.3947 33.6695 30.2982 33.8963 30.07 34.0765C29.8399 34.2582 29.5267 34.3924 28.914 34.1388L20.5385 27.422C20.5036 27.3854 20.4616 27.3564 20.415 27.3368C20.3684 27.3172 20.3183 27.3075 20.2677 27.3082C20.1713 27.307 20.0783 27.3439 20.0089 27.4107C19.9395 27.4776 19.8992 27.5692 19.8967 27.6656L18.942 32.7808C18.8932 32.6684 18.8406 32.5365 18.7837 32.359C18.4882 31.4373 17.1591 26.8224 17.0282 26.3677L30.1739 17.8568C30.1928 17.9382 30.239 18.0108 30.3048 18.0623C30.3705 18.1139 30.452 18.1415 30.5356 18.1405C30.5908 18.1411 30.6455 18.1293 30.6956 18.1058C30.7457 18.0823 30.7898 18.0479 30.8246 18.005C30.8595 17.962 30.8842 17.9118 30.8969 17.858C30.9096 17.8042 30.9099 17.7482 30.898 17.6942C30.9077 17.582 30.8983 17.4717 30.8493 17.3619C30.7701 17.1848 30.5828 17.077 30.4496 17.0518C30.1833 17.0013 30.0098 17.0983 30.0098 17.0983L29.9733 17.112L16.5484 25.8048L11.403 24.1038L11.4016 24.103C11.4002 24.1026 11.2386 24.0442 11.0664 23.924C10.8935 23.8032 10.7561 23.6465 10.7348 23.4785C10.7273 23.4197 10.7386 23.3799 10.7849 23.313C10.8312 23.2462 10.9171 23.1671 11.0148 23.101C11.2102 22.9689 11.4259 22.894 11.4259 22.894L11.4374 22.8898L11.4495 22.8847C11.4495 22.8847 16.703 20.6975 22.0497 18.4742C24.723 17.3626 27.4199 16.2423 29.4942 15.3815C31.5684 14.5208 33.0498 13.9083 33.1985 13.8503C33.3621 13.7867 33.531 13.7541 33.6769 13.7478ZM29.5085 18.3969L29.2148 18.5444L29.1568 18.8681L29.3817 19.1081L29.5085 19.1303L29.8021 18.9835L29.8602 18.6597L29.636 18.4198L29.5085 18.3969ZM28.4821 19.3874L28.1885 19.5342L28.1305 19.858L28.3546 20.0979L28.4821 20.1208L28.7758 19.9733L28.8338 19.6503L28.6089 19.4103L28.4821 19.3874ZM27.4551 20.3772L27.1614 20.5248L27.1034 20.8478L27.3276 21.0877L27.4551 21.1106L27.7487 20.9638L27.8067 20.6401L27.5826 20.4001L27.4551 20.3772ZM26.4287 21.3678L26.1343 21.5146L26.077 21.8383L26.3012 22.0783L26.4287 22.1012L26.7224 21.9536L26.7804 21.6306L26.5555 21.39L26.4287 21.3678ZM25.4016 22.3576L25.108 22.5051L25.05 22.8282L25.2742 23.0681L25.4016 23.091L25.6953 22.9442L25.7533 22.6205L25.5291 22.3805L25.4016 22.3576ZM24.3746 23.3474L24.0809 23.495L24.0229 23.8187L24.2478 24.0586L24.3746 24.0808L24.6689 23.934L24.7262 23.6103L24.5021 23.3703L24.3746 23.3474ZM23.3482 24.338L23.0546 24.4848L22.9966 24.8085L23.2207 25.0485L23.3482 25.0714L23.6419 24.9238L23.6999 24.6008L23.475 24.3609L23.3482 24.338ZM22.3211 25.3278L22.0275 25.4753L21.9695 25.7983L22.1944 26.0383L22.3211 26.0612L22.6148 25.9144L22.6728 25.5906L22.4486 25.3507L22.3211 25.3278ZM21.2948 26.3183L21.0004 26.4652L20.9431 26.7889L21.1673 27.0288L21.2948 27.0517L21.5884 26.9042L21.6465 26.5805L21.4216 26.3405L21.2948 26.3183ZM20.5155 28.3438L22.7595 30.143L19.6733 32.8575L20.5155 28.3438Z" fill="black"/>
</svg>
