<svg width="22" height="15" viewBox="0 0 22 15" fill="none" xmlns="http://www.w3.org/2000/svg">
<path d="M10.2133 14.1148L0.778582 2.50542C0.407139 2.04836 0.407139 1.34673 0.778582 0.889671C0.974705 0.648341 1.25672 0.5 1.56688 0.5C1.87704 0.5 2.15905 0.648341 2.35517 0.889671L10.9995 11.5265L19.6438 0.889671C19.8399 0.648342 20.1219 0.5 20.4321 0.5C20.7422 0.5 21.0242 0.648342 21.2204 0.889671C21.4086 1.1213 21.5 1.41607 21.5 1.69497C21.5 1.96424 21.4181 2.26382 21.2179 2.50332L11.7886 14.1061C11.788 14.1067 11.7875 14.1074 11.7869 14.1081C11.5913 14.3523 11.3087 14.4986 11.0017 14.5C10.6941 14.5014 10.4101 14.357 10.2133 14.1148Z" fill="#33AB4F" stroke="#33AB4F"/>
</svg>
