<svg width="48" height="48" viewBox="0 0 48 48" fill="none" xmlns="http://www.w3.org/2000/svg">
<circle cx="24" cy="24" r="24" fill="#F0F0F0"/>
<path d="M23.6569 12.0005C22.9457 12.0046 22.2324 12.0474 21.513 12.135C20.1373 12.3042 18.7739 12.5854 17.4655 13.1866C15.3847 14.1425 13.9092 15.7647 13.4812 18.1227C13.2998 19.1172 13.1531 20.126 13.0695 21.141C12.9085 23.1117 13.0084 25.0886 13.5668 27.0308C14.007 28.5613 14.8182 29.937 16.2386 30.8296C16.8398 31.2066 17.6326 31.39 18.0463 31.5816C18.1625 31.6366 18.191 31.6693 18.1972 31.6774C18.2033 31.6835 18.2196 31.6978 18.2175 31.8201C18.2033 33.0673 18.2175 35.4803 18.2175 35.4803L18.2196 36H19.1509L19.3017 35.8533C19.3017 35.8533 21.6679 33.5768 22.5238 32.6393C22.6787 32.4722 22.7582 32.3785 22.7745 32.3683C22.7888 32.3581 22.7643 32.352 22.9233 32.3479C24.0462 32.3255 25.1671 32.2827 26.288 32.2215C27.7656 32.14 29.2716 31.9994 30.7207 31.3941C31.9822 30.8663 33.0358 30.0042 33.6737 28.7121C34.3259 27.3874 34.6744 25.9832 34.8048 24.5301C35.0208 22.111 34.9454 19.6879 34.277 17.2993C33.8836 15.8992 33.0929 14.7151 31.8803 13.8796C30.4292 12.8809 28.7927 12.506 27.1908 12.2675C26.2554 12.1289 25.3138 12.0372 24.3682 12.0087C24.1318 12.0026 23.8954 11.9985 23.6569 12.0005ZM24.3397 13.0521C25.2384 13.0766 26.1372 13.1642 27.038 13.2987C28.5828 13.529 30.04 13.8796 31.2893 14.7396C32.3021 15.4366 32.9339 16.3782 33.2722 17.5785C33.8959 19.8122 33.9753 22.1009 33.7654 24.4384C33.6452 25.7856 33.3252 27.0552 32.7362 28.2515C32.2165 29.3072 31.4054 29.9777 30.3171 30.4322C29.0536 30.96 27.68 31.1007 26.233 31.1801C25.1243 31.2413 24.0136 31.282 22.9029 31.3045C22.6237 31.3106 22.3506 31.3839 22.157 31.5266C21.9634 31.6693 21.8757 31.8017 21.7555 31.9322C21.1441 32.6006 19.9254 33.7765 19.261 34.4206C19.2569 33.642 19.2508 32.7005 19.261 31.8323C19.2651 31.5653 19.2039 31.2922 19.0511 31.0762C18.8982 30.8602 18.6883 30.7297 18.4865 30.636C17.8976 30.3629 17.1272 30.155 16.793 29.9451C15.6252 29.2114 14.9628 28.1109 14.5695 26.7414C14.0539 24.95 13.9561 23.1056 14.1089 21.2286C14.1904 20.2544 14.3311 19.2782 14.5084 18.3102C14.8793 16.2701 16.045 14.9862 17.8996 14.1343C19.0715 13.5963 20.3228 13.3313 21.6414 13.1703C22.5401 13.0603 23.4389 13.0256 24.3397 13.0521ZM24.5598 15.6526C24.1298 15.6526 23.712 15.7015 23.3064 15.7912C23.0272 15.8564 22.8499 16.1356 22.9131 16.4169C22.9763 16.6981 23.2575 16.8734 23.5387 16.8102C23.8669 16.7348 24.2092 16.6961 24.5598 16.6961C27.1073 16.6961 29.1616 18.7504 29.1616 21.2958C29.1616 21.6484 29.1229 21.9908 29.0475 22.321C28.9843 22.6002 29.1595 22.8814 29.4408 22.9446C29.722 23.0078 30.0012 22.8305 30.0644 22.5492C30.1561 22.1457 30.205 21.7279 30.205 21.2958C30.205 18.1859 27.6718 15.6526 24.5598 15.6526ZM19.3547 16.6981C19.2691 16.694 19.1815 16.7002 19.0898 16.7205C18.1421 16.9304 17.2006 17.6173 17.1741 18.8441C17.2006 19.0153 17.1985 19.1987 17.2617 19.3536C17.5715 20.1118 17.8405 20.8944 18.2277 21.6117C20.1129 25.0967 22.964 27.5199 26.5978 29.0586C27.0319 29.242 27.4802 29.2807 27.9184 29.0973C28.5217 28.8466 29.0332 28.4594 29.3735 27.903C29.8402 27.1388 29.8464 26.6089 29.078 26.0444C28.5746 25.6735 28.0794 25.2924 27.5699 24.9296C26.7934 24.3793 25.9538 24.2835 25.375 25.2496C25.3444 25.2985 25.2996 25.3392 25.2609 25.38C24.9633 25.6959 24.5985 25.7733 24.2113 25.6144C22.7419 25.0091 21.6067 24.0329 20.922 22.5798C20.5184 21.7259 20.6285 21.2979 21.3825 20.7293C21.4579 20.6743 21.5293 20.6152 21.5986 20.552C21.9287 20.2503 22.0164 19.8917 21.8207 19.4861C21.3785 18.5608 20.7895 17.7355 20.0436 17.0242C19.8418 16.8326 19.6115 16.7124 19.3547 16.6981ZM24.5516 17.2178C24.3213 17.2178 24.0931 17.2361 23.8689 17.2749C23.6794 17.2993 23.5184 17.4257 23.4491 17.603C23.3798 17.7823 23.4144 17.9841 23.5367 18.1308C23.661 18.2755 23.8567 18.3428 24.0442 18.302C24.2072 18.2755 24.3784 18.2613 24.5516 18.2613C26.2472 18.2613 27.6086 19.6226 27.6086 21.3183C27.6086 21.4915 27.5944 21.6627 27.5679 21.8257C27.5271 22.0132 27.5944 22.2089 27.7391 22.3332C27.8858 22.4555 28.0876 22.4901 28.2669 22.4208C28.4442 22.3515 28.5706 22.1905 28.595 22.001C28.6337 21.7768 28.6521 21.5486 28.6521 21.3183C28.6521 19.0602 26.8097 17.2178 24.5516 17.2178ZM24.4783 18.783C24.2908 18.781 24.1155 18.8788 24.0197 19.0418C23.926 19.2049 23.926 19.4046 24.0197 19.5676C24.1155 19.7307 24.2908 19.8285 24.4783 19.8264C25.3485 19.8264 26.0434 20.5214 26.0434 21.3916C26.0414 21.5791 26.1392 21.7544 26.3023 21.8502C26.4653 21.9439 26.665 21.9439 26.8281 21.8502C26.9911 21.7544 27.0889 21.5791 27.0869 21.3916C27.0869 19.9569 25.913 18.783 24.4783 18.783Z" fill="black"/>
</svg>
