<svg width="22" height="24" viewBox="0 0 22 24" fill="none" xmlns="http://www.w3.org/2000/svg">
<path d="M10.657 0.000530107C9.94569 0.00460636 9.23239 0.0474042 8.51298 0.135038C7.13733 0.304192 5.77391 0.585436 4.46551 1.18665C2.38471 2.14247 0.909203 3.76471 0.481223 6.12268C0.299841 7.11722 0.153106 8.12603 0.0695477 9.14095C-0.0914543 11.1117 0.00840749 13.0886 0.566819 15.0308C1.00703 16.5613 1.81815 17.937 3.23864 18.8296C3.83984 19.2066 4.63263 19.39 5.04634 19.5816C5.16251 19.6366 5.19104 19.6693 5.19715 19.6774C5.20327 19.6835 5.21957 19.6978 5.21753 19.8201C5.20327 21.0673 5.21753 23.4803 5.21753 23.4803L5.21957 24H6.15094L6.30175 23.8533C6.30175 23.8533 8.66786 21.5768 9.52382 20.6393C9.67871 20.4722 9.75819 20.3785 9.7745 20.3683C9.78876 20.3581 9.76431 20.352 9.92327 20.3479C11.0462 20.3255 12.1671 20.2827 13.288 20.2216C14.7656 20.14 16.2716 19.9994 17.7207 19.3941C18.9822 18.8663 20.0358 18.0042 20.6737 16.7121C21.3259 15.3874 21.6744 13.9832 21.8048 12.5301C22.0208 10.111 21.9454 7.68786 21.277 5.29933C20.8836 3.89922 20.0929 2.71514 18.8803 1.87957C17.4292 0.880946 15.7927 0.505954 14.1908 0.267508C13.2554 0.128924 12.3138 0.0372143 11.3682 0.0086821C11.1318 0.00256797 10.8954 -0.00150776 10.657 0.000530107ZM11.3397 1.05214C12.2384 1.07659 13.1372 1.16423 14.038 1.29873C15.5828 1.52903 17.04 1.87957 18.2893 2.7396C19.3021 3.4366 19.9339 4.37815 20.2722 5.57853C20.8959 7.81218 20.9753 10.1009 20.7654 12.4384C20.6452 13.7856 20.3252 15.0552 19.7362 16.2515C19.2165 17.3072 18.4054 17.9777 17.3171 18.4322C16.0536 18.96 14.68 19.1007 13.233 19.1801C12.1243 19.2413 11.0136 19.282 9.90289 19.3045C9.62368 19.3106 9.35059 19.3839 9.15698 19.5266C8.96337 19.6693 8.87574 19.8017 8.7555 19.9322C8.1441 20.6006 6.92537 21.7765 6.26099 22.4206C6.25691 21.642 6.2508 20.7005 6.26099 19.8323C6.26506 19.5653 6.20392 19.2922 6.05107 19.0762C5.89822 18.8602 5.68831 18.7297 5.48655 18.636C4.89757 18.3629 4.1272 18.155 3.79297 17.9451C2.6252 17.2114 1.96285 16.1109 1.56951 14.7414C1.0539 12.95 0.956077 11.1056 1.10893 9.22859C1.19045 8.25442 1.33107 7.27822 1.50837 6.31017C1.87929 4.27014 3.04503 2.9862 4.8996 2.13431C6.07145 1.59628 7.32278 1.33134 8.64137 1.17034C9.54013 1.06029 10.4389 1.02564 11.3397 1.05214ZM11.5598 3.65262C11.1298 3.65262 10.712 3.70154 10.3064 3.79121C10.0272 3.85642 9.8499 4.13563 9.91308 4.41687C9.97626 4.69812 10.2575 4.87338 10.5387 4.81021C10.8669 4.7348 11.2092 4.69608 11.5598 4.69608C14.1073 4.69608 16.1616 6.75038 16.1616 9.29584C16.1616 9.64842 16.1229 9.9908 16.0475 10.321C15.9843 10.6002 16.1595 10.8814 16.4408 10.9446C16.722 11.0078 17.0012 10.8305 17.0644 10.5492C17.1561 10.1457 17.205 9.7279 17.205 9.29584C17.205 6.18586 14.6718 3.65262 11.5598 3.65262ZM6.35474 4.69812C6.26914 4.69404 6.18151 4.70015 6.0898 4.72053C5.14213 4.93045 4.20057 5.61725 4.17408 6.84413C4.20057 7.01532 4.19853 7.19874 4.26171 7.35363C4.57149 8.11176 4.8405 8.89436 5.22772 9.61173C7.11287 13.0967 9.96403 15.5199 13.5978 17.0586C14.0319 17.242 14.4802 17.2807 14.9184 17.0973C15.5217 16.8466 16.0332 16.4594 16.3735 15.903C16.8402 15.1388 16.8464 14.6089 16.078 14.0444C15.5746 13.6735 15.0794 13.2924 14.5699 12.9296C13.7934 12.3793 12.9538 12.2835 12.375 13.2496C12.3444 13.2985 12.2996 13.3392 12.2609 13.38C11.9633 13.6959 11.5985 13.7733 11.2113 13.6144C9.74189 13.0091 8.60672 12.0329 7.92196 10.5798C7.51843 9.72586 7.62848 9.29788 8.38254 8.72928C8.45795 8.67425 8.52928 8.61515 8.59857 8.55197C8.92873 8.25035 9.01636 7.89166 8.82071 7.4861C8.37847 6.56085 7.78949 5.73546 7.04358 5.0242C6.84182 4.83262 6.61152 4.71238 6.35474 4.69812ZM11.5516 5.21781C11.3213 5.21781 11.0931 5.23615 10.8689 5.27487C10.6794 5.29933 10.5184 5.42568 10.4491 5.60299C10.3798 5.78233 10.4144 5.98409 10.5367 6.13083C10.661 6.27553 10.8567 6.34278 11.0442 6.30202C11.2072 6.27553 11.3784 6.26126 11.5516 6.26126C13.2472 6.26126 14.6086 7.62264 14.6086 9.31826C14.6086 9.49149 14.5944 9.66268 14.5679 9.82572C14.5271 10.0132 14.5944 10.2089 14.7391 10.3332C14.8858 10.4555 15.0876 10.4901 15.2669 10.4208C15.4442 10.3515 15.5706 10.1905 15.595 10.001C15.6337 9.77681 15.6521 9.54855 15.6521 9.31826C15.6521 7.06016 13.8097 5.21781 11.5516 5.21781ZM11.4783 6.78299C11.2908 6.78095 11.1155 6.87877 11.0197 7.04181C10.926 7.20485 10.926 7.40458 11.0197 7.56762C11.1155 7.73066 11.2908 7.82848 11.4783 7.82644C12.3485 7.82644 13.0434 8.5214 13.0434 9.39163C13.0414 9.57912 13.1392 9.75439 13.3023 9.85018C13.4653 9.94393 13.665 9.94393 13.8281 9.85018C13.9911 9.75439 14.0889 9.57912 14.0869 9.39163C14.0869 7.95688 12.913 6.78299 11.4783 6.78299Z" fill="black"/>
</svg>
